<?xml version="1.0" standalone="no"?>
<!DOCTYPE svg PUBLIC "-//W3C//DTD SVG 20010904//EN"
 "http://www.w3.org/TR/2001/REC-SVG-20010904/DTD/svg10.dtd">
<svg version="1.0" xmlns="http://www.w3.org/2000/svg"
 width="256.000000pt" height="256.000000pt" viewBox="0 0 256.000000 256.000000"
 preserveAspectRatio="xMidYMid meet">
<metadata>
Created by potrace 1.11, written by Peter Selinger 2001-2013
</metadata>
<g transform="translate(0.000000,256.000000) scale(0.100000,-0.100000)"
fill="#000000" stroke="none">
<path d="M410 1991 c-69 -22 -130 -73 -166 -141 -18 -33 -19 -73 -22 -678 l-3
-643 31 -17 c27 -15 30 -22 30 -64 l0 -48 -110 0 c-99 0 -112 -2 -131 -21 -19
-19 -21 -30 -17 -98 7 -110 52 -185 143 -234 l40 -22 1075 0 1075 0 40 22 c93
50 137 124 143 239 6 109 -1 114 -150 114 l-108 0 0 48 c0 42 3 50 25 60 13 6
27 22 30 34 3 13 4 304 3 648 -3 619 -3 625 -25 665 -25 47 -74 95 -123 121
-33 18 -77 19 -895 21 -473 1 -871 -2 -885 -6z"/>
</g>
</svg>
